<svg fill="white" xmlns="http://www.w3.org/2000/svg" viewBox="0 0 48 48" width="24px" height="24px"><path d="M 9.5 3 A 3.5 3.5 0 1 0 9.5 10 A 3.5 3.5 0 0 0 10.431641 9.8691406 L 14.548828 14.623047 C 12.957081 16.659259 12 19.215381 12 22 C 12 23.961424 12.479889 25.808435 13.314453 27.443359 L 7.5332031 30.654297 A 3.5 3.5 0 0 0 5.5 30 A 3.5 3.5 0 1 0 5.5 37 A 3.5 3.5 0 0 0 8.9882812 33.277344 L 15.011719 29.931641 C 17.210554 32.421303 20.41751 34 24 34 C 27.58249 34 30.789446 32.421303 32.988281 29.931641 L 39.007812 33.275391 A 3.5 3.5 0 0 0 42.5 37 A 3.5 3.5 0 1 0 42.5 30 A 3.5 3.5 0 0 0 40.466797 30.654297 L 34.683594 27.443359 C 35.518398 25.80825 36 23.961725 36 22 C 36 19.215381 35.042919 16.659259 33.451172 14.623047 L 37.568359 9.8691406 A 3.5 3.5 0 0 0 38.5 10 A 3.5 3.5 0 1 0 38.5 3 A 3.5 3.5 0 0 0 35.298828 7.90625 L 31.318359 12.505859 C 29.291466 10.940979 26.758539 10 24 10 C 21.241461 10 18.708534 10.940979 16.681641 12.505859 L 12.701172 7.9042969 A 3.5 3.5 0 0 0 9.5 3 z M 24 34 L 22.5 34 L 22.5 39.341797 A 3.5 3.5 0 0 0 24 46 A 3.5 3.5 0 0 0 25.5 39.337891 L 25.5 34 L 24 34 z M 23.998047 14.050781 C 24.688047 14.050781 25.248047 14.610781 25.248047 15.300781 L 25.248047 16.042969 C 26.910047 16.253969 27.715594 17.439891 27.808594 17.587891 C 28.175594 18.173891 27.998109 18.944547 27.412109 19.310547 C 26.828109 19.678547 26.054453 19.498109 25.689453 18.912109 C 25.675453 18.894109 25.377 18.5 24.75 18.5 L 23.4375 18.5 C 22.7815 18.5 22.248047 19.005 22.248047 19.625 C 22.248047 20.245 22.7825 20.75 23.4375 20.75 L 24.8125 20.75 C 26.8465 20.75 28.5 22.376 28.5 24.375 C 28.5 26.227 27.075 27.740078 25.25 27.955078 L 25.25 28.699219 C 25.25 29.389219 24.69 29.949219 24 29.949219 C 23.31 29.949219 22.75 29.389219 22.75 28.699219 L 22.75 27.980469 C 21.37 27.888469 20.192937 27.166359 19.710938 26.443359 C 19.328937 25.869359 19.482641 25.093937 20.056641 24.710938 C 20.625641 24.332938 21.392297 24.480016 21.779297 25.041016 C 21.892297 25.168016 22.383063 25.5 23.039062 25.5 L 24.8125 25.5 C 25.4675 25.5 26 24.996953 26 24.376953 C 26 23.756953 25.4675 23.251953 24.8125 23.251953 L 23.4375 23.251953 C 21.4035 23.251953 19.748047 21.625953 19.748047 19.626953 C 19.748047 17.858953 21.043047 16.386359 22.748047 16.068359 L 22.748047 15.300781 C 22.748047 14.610781 23.308047 14.050781 23.998047 14.050781 z"/></svg>
