<?xml version="1.0" encoding="utf-8"?>
<!-- Generator: Adobe Illustrator 22.0.0, SVG Export Plug-In . SVG Version: 6.00 Build 0)  -->
<svg version="1.1" id="Layer_1" xmlns="http://www.w3.org/2000/svg" fill="white" xmlns:xlink="http://www.w3.org/1999/xlink" x="0px" y="0px"
	 viewBox="0 0 1278.2 246.7" style="enable-background:new 0 0 1278.2 246.7;" xml:space="preserve">
<g>
	<path d="M154.9,99.4V74h107.8v25.4H154.9z M154.9,133.3v-25.4h107.8v25.4H154.9z M154.9,167.2v-25.4h107.8v25.4H154.9z"/>
	<path d="M269.9,99.4V74h111.4l-21.6,25.4H269.9z M269.9,167.2l50.3-59.3h32.3l-28.7,33.9h57.5v25.4H269.9z"/>
	<path d="M741.4,98.6V73.2h111.4l-21.6,25.4H741.4z M741.4,166.4l50.3-59.3h32.3l-28.7,33.9h57.5v25.4H741.4z"/>
	<path d="M989.3,166.4v-59.3h21.6v33.9h61.1L1036,98.6h-46.7V73.2h57.5l79,93.2H989.3z"/>
	<path d="M1133,98.6V73.2h107.8v25.4H1133z M1133,132.5v-25.4h107.8v25.4H1133z M1133,166.4v-25.4h107.8v25.4H1133z"/>
	<g>
		<polygon points="534,134.5 534.1,99 534,73.9 509.8,73.9 509.8,163 		"/>
		<polygon points="574.4,141.8 537.6,141.7 516,167.2 617.7,167.2 617.7,141.8 		"/>
	</g>
	<g>
		<polygon points="905.6,88.8 892.3,73.2 860,73.2 889.4,107.8 		"/>
		<polygon points="949.8,73.2 921.1,107.1 910.7,94.8 894.5,113.8 910.3,132.5 910.3,166.4 931.8,166.4 931.8,132.5 982.1,73.2 		
			"/>
	</g>
	<g>
		<polygon points="683.9,98.6 712.2,98.6 712.7,120.6 712.7,139 712.7,140.9 683.9,140.9 683.9,166.4 734.2,166.4 734.2,73.2 
			683.9,73.2 		"/>
		<polygon points="676.8,140.9 649,140.9 648.8,98.6 676.8,98.6 676.8,73.2 626.5,73.2 626.5,166.4 676.8,166.4 		"/>
	</g>
	<g>
		<polygon points="441.9,141.8 412.8,141.8 412.6,99.4 441.9,99.4 441.9,74 390.2,74 390.2,167.2 441.9,167.2 		"/>
		<polygon points="449.1,74 449.1,99.4 475.9,99.4 476.5,121.4 476.5,139.8 476.5,141.8 449.1,141.8 449.1,167.2 498,167.2 498,74 
					"/>
	</g>
	<g>
		<polygon points="90.2,129.1 39.9,69.8 39.9,167.2 61.5,167.2 61.5,133.3 90.2,163.4 		"/>
		<polygon points="97.4,129.1 97.4,163.2 126.2,133.3 126.2,167.2 147.7,167.2 147.7,69.8 		"/>
	</g>
</g>
</svg>
